PathFileType	4	(X/Y/Z)	D:\TRACE\v60_Jaco2_6-2-23\JustArmDRS_Motion2_1-Unnamed.trc
DataRate	CameraRate	NumFrames	NumMarkers	Units	OrigDataRate	OrigDataStartFrame	OrigNumFrames
100.00	100.00	      142	0	mm	100.00	900	      7199
Frame#	Time	
		

900	8.990													943.40082	716.44641	12.39109													1267.68079	909.64606	400.71414	
901	9.000	
902	9.010	
903	9.020													16.40517	1207.85852	288.61368	
904	9.030													15.68579	1207.82507	287.34491	
905	9.040																						13.11294	1208.53662	286.16782										402.94235	1172.68457	343.17883	
906	9.050													11.47170	1209.06445	285.26288																			401.01413	1172.47107	342.18112	
907	9.060													9.82312	1209.67981	283.75259	
908	9.070																						6.87761	1210.60388	282.41858				395.79672	1172.65430	338.74826				1263.21252	907.28015	396.48584	
909	9.080													5.43790	1211.78625	280.93402																																					7.01861	867.89935	-42.64974	
910	9.090													3.36253	1212.80933	279.21341	
911	9.100																												4.53431	868.13226	-44.44278	
912	9.110																						1262.09875	907.58649	394.56052	
913	9.120	
914	9.130	
915	9.140	
916	9.150																																		-64.01112	1229.84827	185.04716	
917	9.160																																		-67.65665	1231.66211	184.28557	
918	9.170																																		-71.07521	1233.61536	183.72755	
919	9.180																																		-75.14114	1235.82617	183.30782	
920	9.190							1832.65833	897.30731	-444.44003																									-78.85833	1237.74292	182.36646	
921	9.200																																														-435.27887	842.25873	-188.67706	
922	9.210							1790.95935	902.54059	-448.86179																									-228.00391	1268.57788	242.74541	
923	9.220																																																				-90.33727	1243.34570	179.08231	
924	9.230																																																				-94.52438	1245.27454	177.60422	
925	9.240																						-1300.41809	-616.16046	-2558.70410																												-98.49718	1247.65894	175.86586	
926	9.250																																																				-102.61281	1249.59473	175.35707	
927	9.260																																		1234.99963	1004.63196	-425.50629							-72.50200	1191.69836	-33.27453	
928	9.270	
929	9.280																						1222.79175	1006.65820	-433.28799	
930	9.290																						1213.72473	1007.67621	-436.51352	
931	9.300																																											-327.47766	805.69147	-173.89995	
932	9.310	
933	9.320																						-328.12909	804.88702	-175.28220	
934	9.330																						-328.14612	805.06396	-176.31262	
935	9.340	
936	9.350	
937	9.360	
938	9.370	
939	9.380																																														965.16827	732.03418	58.17748	
940	9.390																																		-1241.29419	-583.71332	-2488.89282	
941	9.400	
942	9.410							-32.52966	700.97906	321.98126	
943	9.420							-34.14389	701.66718	319.74887																																					78.03192	679.28058	-210.57033	
944	9.430							-36.45182	701.20380	318.06583	
945	9.440																												-32.53836	863.63928	-151.76797	
946	9.450																												-33.04750	863.97296	-152.85876																87.57375	676.72516	-216.60406	
947	9.460																																														87.71470	676.14380	-217.20978	
948	9.470	
949	9.480																																		-161.55386	1262.11731	65.21392										97.75302	678.58081	-217.60292	
950	9.490																																														97.49995	678.57971	-218.64432	
951	9.500																																		1185.64246	854.28998	293.44769	
952	9.510	
953	9.520	
954	9.530																												-70.71426	1116.12720	23.74911	
955	9.540																												-72.95368	1115.88440	21.26364	
956	9.550							-187.81248	1274.85681	57.98193																			-71.20834	1112.49463	17.09095	
957	9.560																												-75.66601	1111.12646	12.52747																						-212.14699	1279.09924	54.19201	-32.76600	1130.17761	-390.54385	
958	9.570																																																							-35.30896	1129.36487	-394.41510	
959	9.580																																		-214.53500	1281.85657	51.22882										-68.79882	1085.66809	-8.89213				331.98624	1159.69666	-267.26868	-37.25150	1128.65198	-397.25510	
960	9.590																																																							-37.48148	1127.50403	-399.63040	
961	9.600																																																							-38.15572	1127.10583	-401.12729	
962	9.610																																																							-38.79181	1126.01660	-403.84692	
963	9.620																																																							-40.44227	1124.95264	-406.31143	
964	9.630																																																							-40.95683	1124.05493	-408.25952	
965	9.640																																																							-42.34894	1123.35754	-411.49854	
966	9.650																																																							-42.40477	1122.29358	-412.89264	
967	9.660																																																							-42.85223	1121.21118	-415.05161	
968	9.670																																																							-43.64233	1120.57617	-417.47403	
969	9.680																																																							-44.46817	1119.93921	-419.86719	
970	9.690																																																							-44.04407	1118.94788	-421.19513	
971	9.700																																																							-44.30575	1117.90625	-423.92044	
972	9.710																																																							-44.98245	1117.44250	-425.74161	
973	9.720																																																							-44.51983	1116.35815	-427.85797	
974	9.730																																																							-45.22951	1115.63757	-429.18726	
975	9.740																																																							-45.28094	1115.16858	-431.12393	
976	9.750	
977	9.760	
978	9.770	
979	9.780	
980	9.790	
981	9.800	
982	9.810	
983	9.820	
984	9.830	
985	9.840							-75.37343	857.56213	-115.57240	
986	9.850							-70.65214	856.08539	-114.92560	
987	9.860							-70.94031	856.08313	-115.29354																																					-485.79047	1260.86279	-614.84387	
988	9.870							-69.85966	855.85144	-115.43006																																					-487.56052	1261.44739	-617.68964	
989	9.880																												-671.71167	1094.62122	-496.91977																-489.07672	1262.06689	-620.22235	
990	9.890							-68.42220	855.07867	-115.86996																																					-490.59760	1262.11145	-622.83246	
991	9.900	
992	9.910				-55.74704	1200.39832	-468.28418	-20.93174	1148.19153	-494.15704	
993	9.920				-55.28954	1199.76636	-470.22897	
994	9.930				-54.61774	1199.06677	-471.97946	
995	9.940				-55.24730	1198.56604	-473.85840	
996	9.950				-52.63395	1197.80518	-474.98145	
997	9.960				-51.33559	1197.47083	-476.55313	
998	9.970				-49.79586	1197.10132	-478.18945																									683.32275	854.19800	219.45753	
999	9.980				-46.77945	1196.80518	-479.59305																									684.70197	854.04565	219.86530	
1000	9.990	
1001	10.000																															-37.84903	898.29205	-1080.17627	
1002	10.010	
1003	10.020	
1004	10.030																												-6.21385	942.16949	-170.01546	-34.21367	901.47650	-1080.51184	
1005	10.040																															-32.80245	902.96118	-1080.70569	
1006	10.050																												-4.34536	942.08984	-170.56003	-31.94931	903.45087	-1081.03723	
1007	10.060																												-2.86321	941.74908	-170.53719	
1008	10.070																												-1.21853	941.46667	-170.11093	-29.92117	906.09222	-1080.63367	
1009	10.080																															-28.63398	907.51349	-1079.79663																			-152.05940	1292.64185	29.16527	
1010	10.090																												2.09298	940.92639	-170.09488	
1011	10.100																												3.13530	940.75238	-170.01268	
1012	10.110																												5.07559	940.67017	-169.74310				-25.24819	911.64124	-1075.58606	
1013	10.120																												6.88976	940.40112	-169.56815				-24.90492	913.89050	-1074.74219	
1014	10.130																																		-23.84086	915.32349	-1072.34644																-139.17917	1292.32385	27.98078	
1015	10.140																																																				-137.01073	1292.33569	28.16181	
1016	10.150																																		10.92967	939.94434	-168.61182	
1017	10.160																																		13.11741	939.64221	-168.08316	
1018	10.170																																		14.50289	939.74329	-167.76521	
1019	10.180																																		16.42900	939.68573	-167.34625	
1020	10.190																																		17.60255	940.04657	-167.31740							-131.63451	1293.42297	28.93106	
1021	10.200																																		19.97560	940.04102	-166.71429							-127.97910	1293.14819	30.24730	
1022	10.210																																		21.35554	939.97015	-166.37134	
1023	10.220	
1024	10.230	
1025	10.240																																											-123.95483	1294.01306	33.04066	26.27905	940.06445	-164.95114	
1026	10.250																																														28.30251	940.17645	-164.06523	
1027	10.260																																														30.61918	940.29901	-163.13123	
1028	10.270																																														32.62516	940.12457	-162.32559	
1029	10.280																																											-18.39743	850.17163	-109.81422	
1030	10.290																												-478.31305	856.92847	-217.13638																847.92090	700.81415	-15.36475				36.27840	940.21619	-160.27563	
1031	10.300																												-476.30881	856.94427	-216.39822																848.56512	701.03101	-14.62579				38.34304	940.21112	-159.68767	
1032	10.310																															-11.98188	850.41589	-107.32924																			40.43390	940.06250	-158.56172	
1033	10.320																															-10.63060	850.58203	-106.70798				-10.34774	1135.25964	-510.40253													42.61896	940.29791	-157.80463	
1034	10.330																															-10.22947	851.04706	-106.29720													-97.56234	1292.95923	43.95615				42.80494	940.50299	-157.51102	
1035	10.340																																																				45.76320	940.42688	-156.49255	-9.73238	656.63037	-238.65376	
1036	10.350																															-5.75547	850.99731	-104.11954													870.62604	709.24731	12.86317				47.04855	940.86664	-155.86351	
1037	10.360																															-3.38694	850.72095	-102.95637																			49.95930	940.69165	-154.58452	27.74587	1191.82800	-471.79974	
1038	10.370																												-89.75397	1293.08240	49.65380																470.07715	687.16504	-101.75011				50.62808	940.92004	-153.98351	
1039	10.380																																											5.12746	1193.91199	-475.18106							52.82257	940.76794	-153.03429	
1040	10.390																												-6.17913	657.86841	-234.29269																						55.40277	940.62885	-151.39876	
1041	10.400																																											28.89909	1195.61011	-465.00055	873.23444	710.34833	15.27400				57.40224	940.57233	-150.55345	
